<mxfile host="app.diagrams.net" modified="2022-01-25T13:14:58.333Z" agent="5.0 (Windows NT 10.0; Win64; x64) AppleWebKit/537.36 (KHTML, like Gecko) Chrome/97.0.4692.99 Safari/537.36" etag="1bU0mzwKWgomeldmpqjh" version="16.4.5" type="github">
  <diagram id="8F2p-wJesdaGnTnPFIYv" name="Page-1">
    <mxGraphModel dx="782" dy="379" grid="1" gridSize="10" guides="1" tooltips="1" connect="1" arrows="1" fold="1" page="1" pageScale="1" pageWidth="850" pageHeight="1100" math="0" shadow="0">
      <root>
        <mxCell id="0" />
        <mxCell id="1" parent="0" />
        <mxCell id="WxytVaAmlJh2-2ztIMbI-29" value="" style="rounded=1;whiteSpace=wrap;html=1;sketch=1;" vertex="1" parent="1">
          <mxGeometry x="565" y="40" width="70" height="100" as="geometry" />
        </mxCell>
        <mxCell id="WxytVaAmlJh2-2ztIMbI-30" value="" style="rounded=1;whiteSpace=wrap;html=1;sketch=1;" vertex="1" parent="1">
          <mxGeometry x="650" y="40" width="70" height="100" as="geometry" />
        </mxCell>
        <mxCell id="WxytVaAmlJh2-2ztIMbI-28" value="" style="rounded=1;whiteSpace=wrap;html=1;sketch=1;" vertex="1" parent="1">
          <mxGeometry x="480" y="40" width="70" height="100" as="geometry" />
        </mxCell>
        <mxCell id="WxytVaAmlJh2-2ztIMbI-27" value="" style="rounded=1;whiteSpace=wrap;html=1;sketch=1;" vertex="1" parent="1">
          <mxGeometry x="290" y="40" width="120" height="140" as="geometry" />
        </mxCell>
        <mxCell id="WxytVaAmlJh2-2ztIMbI-25" value="" style="rounded=1;whiteSpace=wrap;html=1;sketch=1;" vertex="1" parent="1">
          <mxGeometry x="160" y="40" width="120" height="140" as="geometry" />
        </mxCell>
        <mxCell id="WxytVaAmlJh2-2ztIMbI-1" value="host" style="rounded=0;whiteSpace=wrap;html=1;sketch=1;fillColor=#f5f5f5;fontColor=#333333;strokeColor=#666666;" vertex="1" parent="1">
          <mxGeometry x="160" y="200" width="250" height="40" as="geometry" />
        </mxCell>
        <mxCell id="WxytVaAmlJh2-2ztIMbI-2" value="host" style="rounded=0;whiteSpace=wrap;html=1;sketch=1;fillColor=#f5f5f5;fontColor=#333333;strokeColor=#666666;" vertex="1" parent="1">
          <mxGeometry x="480" y="200" width="240" height="40" as="geometry" />
        </mxCell>
        <mxCell id="WxytVaAmlJh2-2ztIMbI-4" value="Docker Engine" style="rounded=0;whiteSpace=wrap;html=1;sketch=1;fillColor=#dae8fc;strokeColor=#6c8ebf;" vertex="1" parent="1">
          <mxGeometry x="480" y="150" width="240" height="40" as="geometry" />
        </mxCell>
        <mxCell id="WxytVaAmlJh2-2ztIMbI-5" value="libs" style="rounded=0;whiteSpace=wrap;html=1;sketch=1;fillColor=#ffe6cc;strokeColor=#d79b00;" vertex="1" parent="1">
          <mxGeometry x="160" y="95" width="120" height="40" as="geometry" />
        </mxCell>
        <mxCell id="WxytVaAmlJh2-2ztIMbI-6" value="nginx" style="rounded=0;whiteSpace=wrap;html=1;sketch=1;fillColor=#d5e8d4;strokeColor=#82b366;" vertex="1" parent="1">
          <mxGeometry x="160" y="55" width="50" height="30" as="geometry" />
        </mxCell>
        <mxCell id="WxytVaAmlJh2-2ztIMbI-7" value="Your App" style="rounded=0;whiteSpace=wrap;html=1;sketch=1;fillColor=#d5e8d4;strokeColor=#82b366;" vertex="1" parent="1">
          <mxGeometry x="220" y="55" width="60" height="30" as="geometry" />
        </mxCell>
        <mxCell id="WxytVaAmlJh2-2ztIMbI-8" value="libs" style="rounded=0;whiteSpace=wrap;html=1;sketch=1;fillColor=#ffe6cc;strokeColor=#d79b00;" vertex="1" parent="1">
          <mxGeometry x="290" y="95" width="120" height="40" as="geometry" />
        </mxCell>
        <mxCell id="WxytVaAmlJh2-2ztIMbI-9" value="mysql" style="rounded=0;whiteSpace=wrap;html=1;sketch=1;fillColor=#d5e8d4;strokeColor=#82b366;" vertex="1" parent="1">
          <mxGeometry x="290" y="55" width="120" height="30" as="geometry" />
        </mxCell>
        <mxCell id="WxytVaAmlJh2-2ztIMbI-11" value="nginx" style="rounded=0;whiteSpace=wrap;html=1;sketch=1;fillColor=#d5e8d4;strokeColor=#82b366;" vertex="1" parent="1">
          <mxGeometry x="480" y="55" width="70" height="30" as="geometry" />
        </mxCell>
        <mxCell id="WxytVaAmlJh2-2ztIMbI-12" value="Your App" style="rounded=0;whiteSpace=wrap;html=1;sketch=1;fillColor=#d5e8d4;strokeColor=#82b366;" vertex="1" parent="1">
          <mxGeometry x="565" y="55" width="70" height="30" as="geometry" />
        </mxCell>
        <mxCell id="WxytVaAmlJh2-2ztIMbI-13" value="libs" style="rounded=0;whiteSpace=wrap;html=1;sketch=1;fillColor=#ffe6cc;strokeColor=#d79b00;" vertex="1" parent="1">
          <mxGeometry x="650" y="95" width="70" height="40" as="geometry" />
        </mxCell>
        <mxCell id="WxytVaAmlJh2-2ztIMbI-14" value="mysql" style="rounded=0;whiteSpace=wrap;html=1;sketch=1;fillColor=#d5e8d4;strokeColor=#82b366;" vertex="1" parent="1">
          <mxGeometry x="650" y="55" width="70" height="30" as="geometry" />
        </mxCell>
        <mxCell id="WxytVaAmlJh2-2ztIMbI-20" value="libs" style="rounded=0;whiteSpace=wrap;html=1;sketch=1;fillColor=#ffe6cc;strokeColor=#d79b00;" vertex="1" parent="1">
          <mxGeometry x="565" y="95" width="70" height="40" as="geometry" />
        </mxCell>
        <mxCell id="WxytVaAmlJh2-2ztIMbI-21" value="libs" style="rounded=0;whiteSpace=wrap;html=1;sketch=1;fillColor=#ffe6cc;strokeColor=#d79b00;" vertex="1" parent="1">
          <mxGeometry x="480" y="95" width="70" height="40" as="geometry" />
        </mxCell>
        <mxCell id="WxytVaAmlJh2-2ztIMbI-22" value="LXC" style="text;html=1;strokeColor=none;fillColor=none;align=center;verticalAlign=middle;whiteSpace=wrap;rounded=0;sketch=1;" vertex="1" parent="1">
          <mxGeometry x="255" y="260" width="60" height="30" as="geometry" />
        </mxCell>
        <mxCell id="WxytVaAmlJh2-2ztIMbI-23" value="Docker" style="text;html=1;strokeColor=none;fillColor=none;align=center;verticalAlign=middle;whiteSpace=wrap;rounded=0;sketch=1;" vertex="1" parent="1">
          <mxGeometry x="570" y="260" width="60" height="30" as="geometry" />
        </mxCell>
        <mxCell id="WxytVaAmlJh2-2ztIMbI-31" value="Container 2" style="text;html=1;strokeColor=none;fillColor=none;align=center;verticalAlign=middle;whiteSpace=wrap;rounded=0;sketch=1;" vertex="1" parent="1">
          <mxGeometry x="315" y="20" width="70" height="30" as="geometry" />
        </mxCell>
        <mxCell id="WxytVaAmlJh2-2ztIMbI-32" value="Container 1" style="text;html=1;strokeColor=none;fillColor=none;align=center;verticalAlign=middle;whiteSpace=wrap;rounded=0;sketch=1;" vertex="1" parent="1">
          <mxGeometry x="185" y="20" width="70" height="30" as="geometry" />
        </mxCell>
        <mxCell id="WxytVaAmlJh2-2ztIMbI-33" value="&lt;span style=&quot;color: rgb(0, 0, 0); font-family: helvetica; font-size: 12px; font-style: normal; font-weight: 400; letter-spacing: normal; text-align: center; text-indent: 0px; text-transform: none; word-spacing: 0px; background-color: rgb(248, 249, 250); display: inline; float: none;&quot;&gt;Container 1&lt;/span&gt;" style="text;whiteSpace=wrap;html=1;" vertex="1" parent="1">
          <mxGeometry x="475" y="20" width="90" height="30" as="geometry" />
        </mxCell>
        <mxCell id="WxytVaAmlJh2-2ztIMbI-34" value="&lt;span style=&quot;color: rgb(0 , 0 , 0) ; font-family: &amp;#34;helvetica&amp;#34; ; font-size: 12px ; font-style: normal ; font-weight: 400 ; letter-spacing: normal ; text-align: center ; text-indent: 0px ; text-transform: none ; word-spacing: 0px ; background-color: rgb(248 , 249 , 250) ; display: inline ; float: none&quot;&gt;Container 2&lt;/span&gt;" style="text;whiteSpace=wrap;html=1;" vertex="1" parent="1">
          <mxGeometry x="560" y="20" width="90" height="30" as="geometry" />
        </mxCell>
        <mxCell id="WxytVaAmlJh2-2ztIMbI-35" value="&lt;span style=&quot;color: rgb(0 , 0 , 0) ; font-family: &amp;#34;helvetica&amp;#34; ; font-size: 12px ; font-style: normal ; font-weight: 400 ; letter-spacing: normal ; text-align: center ; text-indent: 0px ; text-transform: none ; word-spacing: 0px ; background-color: rgb(248 , 249 , 250) ; display: inline ; float: none&quot;&gt;Container 3&lt;/span&gt;" style="text;whiteSpace=wrap;html=1;" vertex="1" parent="1">
          <mxGeometry x="650" y="20" width="90" height="30" as="geometry" />
        </mxCell>
      </root>
    </mxGraphModel>
  </diagram>
</mxfile>
